<svg width="78" height="23" viewBox="0 0 78 23" fill="none" xmlns="http://www.w3.org/2000/svg">
<path d="M17.33 21.46L9.17 9.97L16.55 1.54C16.79 1.27 16.7 0.999999 16.31 0.999999H12.32C12.11 0.999999 11.93 1.06 11.78 1.24L4.76 9.58V1.45C4.76 1.18 4.58 0.999999 4.31 0.999999H1.1C0.83 0.999999 0.65 1.18 0.65 1.45V21.55C0.65 21.82 0.83 22 1.1 22H4.31C4.58 22 4.76 21.82 4.76 21.55V15.04L6.44 13.09L12.71 21.73C12.86 21.94 13.01 22 13.25 22H17.06C17.42 22 17.54 21.76 17.33 21.46ZM32.0359 7.3H29.2759C29.0059 7.3 28.8559 7.48 28.8259 7.75L28.7359 9.13C27.6259 7.87 26.1259 6.97 24.2659 6.97C20.1559 6.97 17.1559 10.39 17.1559 14.68C17.1559 18.97 20.1559 22.39 24.2659 22.39C26.1859 22.39 27.6559 21.52 28.7059 20.29L28.8259 21.55C28.8559 21.82 29.0059 22 29.2759 22H32.0359C32.3059 22 32.4859 21.82 32.4859 21.55V7.75C32.4859 7.48 32.3059 7.3 32.0359 7.3ZM24.7459 18.79C22.5559 18.79 20.9659 17.02 20.9659 14.65C20.9659 12.31 22.5559 10.57 24.7459 10.57C26.9059 10.57 28.4959 12.43 28.4959 14.65C28.4959 16.87 26.9059 18.79 24.7459 18.79ZM42.324 18.73C40.104 18.73 38.544 16.99 38.544 14.68C38.544 12.37 40.104 10.63 42.324 10.63C43.674 10.63 44.544 11.2 45.384 11.95C45.624 12.16 45.834 12.19 46.044 11.98L47.874 10.21C48.054 10.03 48.084 9.79 47.904 9.58C46.524 7.99 44.514 6.97 42.234 6.97C38.004 6.97 34.734 10.36 34.734 14.68C34.734 19 38.004 22.39 42.234 22.39C44.574 22.39 46.614 21.37 47.994 19.78C48.174 19.57 48.144 19.33 47.964 19.15L46.134 17.41C45.924 17.2 45.714 17.2 45.474 17.41C44.634 18.16 43.734 18.73 42.324 18.73ZM58.8233 6.97C56.6933 6.97 55.1333 8.14 54.1733 9.7V0.549999C54.1733 0.279999 53.9933 0.0999994 53.7233 0.0999994H50.6633C50.3933 0.0999994 50.2133 0.279999 50.2133 0.549999V21.55C50.2133 21.82 50.3933 22 50.6633 22H53.7233C53.9933 22 54.1733 21.82 54.1733 21.55V13.51C54.1733 12.82 55.1933 10.63 57.4133 10.63C58.8533 10.63 60.1733 11.47 60.1733 13.9V21.55C60.1733 21.82 60.3533 22 60.6233 22H63.6833C63.9533 22 64.1333 21.82 64.1333 21.55V13.18C64.1333 9.25 61.8233 6.97 58.8233 6.97ZM68.8646 4.51C70.0646 4.51 71.0246 3.52 71.0246 2.32C71.0246 1.12 70.0646 0.129999 68.8646 0.129999C67.6346 0.129999 66.6746 1.12 66.6746 2.32C66.6746 3.52 67.6346 4.51 68.8646 4.51ZM66.8846 7.75V21.55C66.8846 21.82 67.0646 22 67.3346 22H70.3946C70.6646 22 70.8446 21.82 70.8446 21.55V7.75C70.8446 7.48 70.6646 7.3 70.3946 7.3H67.3346C67.0646 7.3 66.8846 7.48 66.8846 7.75Z" fill="#333333"/>
<path d="M75.4529 22.39C76.6529 22.39 77.6129 21.43 77.6129 20.2C77.6129 19 76.6529 18.04 75.4529 18.04C74.2229 18.04 73.2629 19 73.2629 20.2C73.2629 21.43 74.2229 22.39 75.4529 22.39Z" fill="#FDCA40"/>
</svg>
